<?xml version="1.0" standalone="no"?>
<!DOCTYPE svg PUBLIC "-//W3C//DTD SVG 1.1//EN" "http://www.w3.org/Graphics/SVG/1.1/DTD/svg11.dtd" >
<svg xmlns="http://www.w3.org/2000/svg">
<metadata>
Created by FontForge 20120731 at Wed May 25 19:18:54 2016
 By admin
</metadata>
<defs>
<font id="iconfont" horiz-adv-x="1024" >
  <font-face 
    font-family="iconfont"
    font-weight="500"
    font-stretch="normal"
    units-per-em="1024"
    panose-1="2 0 6 3 0 0 0 0 0 0"
    ascent="896"
    descent="-128"
    x-height="792"
    bbox="0 -130 1010 880"
    underline-thickness="50"
    underline-position="-100"
    unicode-range="U+0078-E61A"
  />
<missing-glyph horiz-adv-x="374" 
d="M34 0v682h272v-682h-272zM68 34h204v614h-204v-614z" />
    <glyph glyph-name=".notdef" horiz-adv-x="374" 
d="M34 0v682h272v-682h-272zM68 34h204v614h-204v-614z" />
    <glyph glyph-name=".null" horiz-adv-x="0" 
 />
    <glyph glyph-name="nonmarkingreturn" horiz-adv-x="341" 
 />
    <glyph glyph-name="x" unicode="x" horiz-adv-x="1001" 
d="M281 543q-27 -1 -53 -1h-83q-18 0 -36.5 -6t-32.5 -18.5t-23 -32t-9 -45.5v-76h912v41q0 16 -0.5 30t-0.5 18q0 13 -5 29t-17 29.5t-31.5 22.5t-49.5 9h-133v-97h-438v97zM955 310v-52q0 -23 0.5 -52t0.5 -58t-10.5 -47.5t-26 -30t-33 -16t-31.5 -4.5q-14 -1 -29.5 -0.5
t-29.5 0.5h-32l-45 128h-439l-44 -128h-29h-34q-20 0 -45 1q-25 0 -41 9.5t-25.5 23t-13.5 29.5t-4 30v167h911zM163 247q-12 0 -21 -8.5t-9 -21.5t9 -21.5t21 -8.5q13 0 22 8.5t9 21.5t-9 21.5t-22 8.5zM316 123q-8 -26 -14 -48q-5 -19 -10.5 -37t-7.5 -25t-3 -15t1 -14.5
t9.5 -10.5t21.5 -4h37h67h81h80h64h36q23 0 34 12t2 38q-5 13 -9.5 30.5t-9.5 34.5q-5 19 -11 39h-368zM336 498v228q0 11 2.5 23t10 21.5t20.5 15.5t34 6h188q31 0 51.5 -14.5t20.5 -52.5v-227h-327z" />
    <glyph glyph-name="uniE600" unicode="&#xe600;" 
d="M415.5 138q16.5 0 28.5 12t12 29v316q0 17 -12 28.5t-28.5 11.5t-28.5 -11.5t-12 -28.5v-316q0 -17 12 -29t28.5 -12zM623 138q17 0 28.5 12t11.5 29v316q0 17 -11.5 28.5t-28.5 11.5t-28.5 -11.5t-11.5 -28.5v-316q0 -17 11.5 -29t28.5 -12zM895 711h-170v78
q0 17 -11.5 28.5t-28.5 11.5h-338q-17 0 -28.5 -11.5t-11.5 -28.5v-78h-177q-16 0 -28 -12t-12 -28.5t12 -28.5t28 -12h48v-648q0 -17 11.5 -29t28.5 -12h589q17 0 29 12t12 29v648h47q17 0 28.5 12t11.5 28.5t-11.5 28.5t-28.5 12zM387 749h258v-38h-258v38zM767 22h-509
v608h509v-608z" />
    <glyph glyph-name="uniE601" unicode="&#xe601;" 
d="M858 688h-144v100q0 16 -11.5 27.5t-27.5 11.5h-394q-16 0 -27.5 -11.5t-11.5 -27.5v-100h-143q-13 0 -22.5 -9.5t-9.5 -22.5t9.5 -22t22.5 -9h42v-594q0 -37 26 -63t63 -26h496q37 0 63.5 26t26.5 63v594h42q13 0 22 9t9 22t-9 22.5t-22 9.5zM305 764h346v-76h-346v76z
M752 31q0 -11 -7.5 -18.5t-18.5 -7.5h-496q-10 0 -18 7.5t-8 18.5v593h548v-593zM367 91q13 0 22 9.5t9 22.5v401q0 13 -9 22.5t-22 9.5t-22.5 -9.5t-9.5 -22.5v-401q0 -13 9.5 -22.5t22.5 -9.5zM590 91q13 0 22 9.5t9 22.5v401q0 13 -9 22.5t-22 9.5t-22.5 -9.5t-9.5 -22.5
v-401q0 -13 9.5 -22.5t22.5 -9.5z" />
    <glyph glyph-name="uniE602" unicode="&#xe602;" 
d="M910 429h-354v354q0 18 -13 31t-31 13t-31 -13t-13 -31v-354h-354q-18 0 -31 -13t-13 -31t13 -31t31 -13h354v-354q0 -18 13 -31t31 -13t31 13t13 31v354h354q18 0 31 13t13 31t-13 31t-31 13z" />
    <glyph glyph-name="uniE603" unicode="&#xe603;" 
d="M512 830q-91 0 -173 -35t-142 -94.5t-95 -142t-35 -173t35 -173t95 -142t142 -95t173 -35.5t173 35.5t142 95t95 142t35 173t-35 173t-95 142t-142 94.5t-173 35zM671 354h-127v-128q0 -13 -9.5 -22t-22.5 -9t-22.5 9t-9.5 22v128h-127q-13 0 -22.5 9t-9.5 22.5t9.5 22.5
t22.5 9h127v127q0 13 9.5 22.5t22.5 9.5t22.5 -9.5t9.5 -22.5v-127h127q13 0 22.5 -9t9.5 -22.5t-9.5 -22.5t-22.5 -9z" />
    <glyph glyph-name="uniE604" unicode="&#xe604;" 
d="M511 764q103 0 190 -51t138 -138t51 -190t-51 -190t-138 -138t-190 -51t-190 51t-138 138t-51 190t51 190t138 138t190 51zM511 827q-90 0 -172 -35t-141 -94t-94 -141t-35 -172t35 -172t94 -141t141 -94t172 -35t172 35t141 94t94 141t35 172t-35 172t-94 141t-141 94
t-172 35zM669 417h-126v126q0 13 -9.5 22.5t-22.5 9.5t-22.5 -9.5t-9.5 -22.5v-126h-126q-13 0 -22.5 -9.5t-9.5 -22.5t9.5 -22.5t22.5 -9.5h126v-126q0 -13 9.5 -22t22.5 -9t22.5 9t9.5 22v126h126q13 0 22.5 9.5t9.5 22.5t-9.5 22.5t-22.5 9.5z" />
    <glyph glyph-name="uniE605" unicode="&#xe605;" 
d="M508 269l-446 290l452 277l446 -270zM508 35l-368 239l-78 -48l446 -290l452 297l-79 47zM508 207l-368 239l-78 -48l446 -290l452 297l-79 47z" />
    <glyph glyph-name="uniE606" unicode="&#xe606;" 
d="M708 20l-59 59q-41 41 -94 93.5t-113.5 112t-116.5 115t-102.5 101.5t-71.5 71q-18 17 -21.5 37t5 36.5t27 27.5t45.5 11h475q62 0 99 -36.5t37 -93.5v-466q0 -31 -10.5 -52t-27 -30t-36 -6t-36.5 20z" />
    <glyph glyph-name="uniE608" unicode="&#xe608;" 
d="M893 691h-144v101q0 16 -11.5 27.5t-28.5 11.5h-397q-16 0 -28 -11.5t-12 -27.5v-101h-144q-13 0 -22.5 -9.5t-9.5 -22.5t9.5 -22.5t22.5 -9.5h42v-592q0 -40 28.5 -68.5t68.5 -28.5h488q39 0 67.5 28.5t28.5 68.5v592h42q14 0 23 9.5t9 22.5t-9 22.5t-23 9.5zM336 768
h349v-77v-1h-349v1v77zM432 120q0 -14 -10 -24t-24 -10t-24 10t-10 24v403q0 14 10 24t24 10t24 -10t10 -24v-403zM657 120q0 -14 -10 -24t-24 -10t-24 10t-10 24v403q0 14 10 24t24 10t24 -10t10 -24v-403z" />
    <glyph glyph-name="uniE609" unicode="&#xe609;" 
d="M951 16l-304 463v263h52v94h-103h-165h-109v-94h57v-254l-309 -472q-17 -25 -2 -51t45 -26h794q31 0 45 26zM474 446q8 13 8 27v263h62v-272q0 -14 8 -27l124 -187h-331z" />
    <glyph glyph-name="uniE60A" unicode="&#xe60a;" 
d="M947 -2l-289 289q77 93 77 210q0 91 -45 168t-121.5 121.5t-167 44.5t-167.5 -44.5t-122 -121.5t-45 -167.5t45 -167.5t122 -121.5t167 -44.5q115 0 208 74l289 -288q10 -11 24 -11t24 10.5t10 24.5t-9 24zM136 497q0 110 77.5 188t187.5 78t188 -78t78 -187.5
t-78 -187.5t-188 -78t-187.5 78t-77.5 187z" />
    <glyph glyph-name="uniE60B" unicode="&#xe60b;" 
d="M631 385l299 299q25 25 25 60t-25 60t-60 25t-59 -25l-299 -299l-300 299q-24 25 -59 25t-60 -25t-25 -60t25 -60l299 -299l-299 -299q-25 -25 -25 -60t25 -59.5t60 -24.5t59 24l300 300l299 -300q24 -24 59 -24t60 24.5t25 59.5t-25 60z" />
    <glyph glyph-name="uniE60C" unicode="&#xe60c;" 
d="M575 577l128 -127l-443 -438l-117 9l-10 117zM575 666l-508 -504l17 -199l200 -17l509 504zM787 764q23 0 39 -16l50 -50q16 -16 16 -38.5t-16 -38.5l-43 -42l-128 127l43 42q16 16 39 16zM787 827q-49 0 -84 -35l-87 -86l217 -216l87 87q35 34 35 82.5t-35 83.5l-49 49
q-35 35 -84 35z" />
    <glyph glyph-name="uniE60D" unicode="&#xe60d;" 
d="M284 -58l-200 17l-17 200l508 508l217 -217zM832 490l-217 217l87 87q35 35 84 35t83 -35l50 -50q35 -34 35 -83t-35 -84z" />
    <glyph glyph-name="uniE60E" unicode="&#xe60e;" 
d="M956 383.5q0 -90.5 -35 -173t-95 -142t-142.5 -94.5t-173 -35t-173 35t-142 94.5t-94.5 142t-35 173t35 173t94.5 142t142 95t173 35.5t173 -35.5t142.5 -95t95 -142t35 -173zM733 458h-445v-148h445v148z" />
    <glyph glyph-name="uniE60F" unicode="&#xe60f;" 
d="M960 435l-157 138v260h-171v-108l-121 108l-449 -398h82v-499h270v263h193v-263h270v499h83z" />
    <glyph glyph-name="uniE610" unicode="&#xe610;" 
d="M510 829q-91 0 -168 -44.5t-122 -122t-45 -168.5q0 -55 18.5 -115.5t48 -113.5t65.5 -103.5t71.5 -90t65 -70t48.5 -47.5l18 -16q7 6 19 17.5t47 47.5t66.5 73t70.5 90.5t66.5 104.5t47 110.5t19.5 112.5q0 91 -45 168.5t-122.5 122t-168.5 44.5zM510 333
q-65 0 -111.5 46t-46.5 111.5t46.5 112t112 46.5t111.5 -46.5t46 -112t-46 -111.5t-112 -46z" />
    <glyph glyph-name="uniE611" unicode="&#xe611;" 
d="M510.5 830q-90.5 0 -173 -35.5t-142 -95t-95 -142t-35.5 -173t35.5 -173t95 -142t142 -94.5t173 -35t173 35t142 94.5t95 142t35.5 173t-35.5 173t-95 142t-142 95t-173 35.5zM510.5 3q-103.5 0 -191.5 51t-139 139t-51 191.5t51 191.5t139 139t191.5 51t191.5 -51
t139 -139t51 -191.5t-51 -191.5t-139 -139t-191.5 -51zM510.5 610q-13.5 0 -22.5 -9.5t-9 -22.5v-254q0 -13 9 -22.5t22.5 -9.5t22.5 9.5t9 22.5v254q0 13 -9 22.5t-22.5 9.5zM510 230q-13 0 -22 -9.5t-9 -22.5t9 -22.5t22.5 -9.5t22.5 9.5t9 22.5t-9 22.5t-23 9.5z" />
    <glyph glyph-name="uniE612" unicode="&#xe612;" 
d="M510 825q-89 0 -170.5 -35t-140.5 -94t-93.5 -140t-34.5 -170.5t34.5 -171t93.5 -140t140.5 -93.5t170.5 -35t170.5 35t140.5 93.5t93.5 140t34.5 171t-34.5 170.5t-93.5 140t-140.5 94t-170.5 35zM510 170q-13 0 -22 9t-9 22t9 22.5t22 9.5t22 -9.5t9 -22.5t-9 -22
t-22 -9zM541 325q0 -13 -9 -22t-22 -9t-22 9t-9 22v251q0 13 9 22.5t22 9.5t22 -9.5t9 -22.5v-251z" />
    <glyph glyph-name="uniE613" unicode="&#xe613;" 
d="M761 543l-51 4q-10 41 -31 76l33 38q5 7 5 16.5t-7 15.5l-65 65q-6 6 -15.5 6.5t-16.5 -5.5l-38 -31q-36 21 -77 31l-4 49q-1 9 -8 15t-16 6h-92q-9 0 -15.5 -6t-7.5 -15l-5 -49q-41 -10 -77 -32l-38 32q-7 5 -16 5t-15 -7l-65 -65q-7 -6 -7.5 -15t5.5 -16l32 -39
q-21 -35 -31 -75l-50 -5q-9 -1 -15 -8t-6 -16v-91q0 -9 6 -16t15 -7l52 -5q11 -39 31 -74l-33 -40q-6 -7 -5.5 -16t6.5 -16l65 -64q7 -7 16 -7.5t16 5.5l40 33l1 1q35 -19 74 -29v-2l5 -52q1 -9 7.5 -15t15.5 -6h92q9 0 16 6t8 15l4 52q1 0 1 1l-1 1q39 10 74 30q0 -1 1 -1
l40 -33q7 -6 16 -5.5t16 6.5l65 65q6 6 6.5 15t-5.5 16l-33 40q0 1 -1 1q21 35 31 73l52 5q10 1 16 8t6 16v91q0 9 -6 16t-16 8zM424 285q-79 0 -135 56t-56 134.5t56 134.5t135 56t135 -56t56 -134.5t-56 -134.5t-135 -56zM547 475.5q0 -50.5 -36 -86t-86.5 -35.5
t-86.5 35.5t-36 86t36 86.5t86.5 36t86.5 -36t36 -86.5zM806 135l11 -3q6 -2 11 -5l10 -6l6 -9q3 -6 5 -11l2 -11l-3 -11q-1 -6 -4 -11l-6 -9l-10 -6q-5 -3 -11 -5l-11 -3l-11 3q-6 2 -11 5l-10 6l-6 9q-3 5 -4 11l-3 11l2 11q2 5 5 10l6 10l9 6q6 3 12 5zM826 241h-40
q-9 0 -10 -10l-2 -21q-17 -4 -32 -13l-16 13q-3 3 -7 3t-7 -3l-27 -28q-7 -6 -1 -13l14 -17q-9 -15 -13 -32l-22 -2q-9 -1 -9 -10v-38q0 -10 9 -10l22 -3v1q5 -17 14 -32h-1l-14 -17q-6 -7 1 -13l27 -28q3 -3 8 -3q3 0 6 2l17 15l1 1q15 -9 31 -13v-1l2 -22q1 -9 10 -9h39
q9 0 10 9l2 22v1q16 4 31 13v-1h1l17 -14q2 -3 6 -3t7 3l28 28q6 6 0 13l-14 17q0 1 -1 1q9 14 14 31v0l22 2q9 1 9 10v39q0 9 -9 10l-22 2q-4 16 -13 31l14 17q6 7 -1 14l-27 27q-3 3 -7 3t-7 -2l-16 -14q-15 9 -32 13l-2 21q-1 10 -10 10z" />
    <glyph glyph-name="uniE614" unicode="&#xe614;" 
d="M68 545h887v213h-887v-213zM543 600h-410v103h410v-103zM851.5 600q-21.5 0 -36.5 15t-15 36.5t15 36.5t36.5 15t36.5 -15t15 -36.5t-15 -36.5t-36.5 -15zM68 276h887v214h-887v-214zM845.5 434q21.5 0 36.5 -15t15 -36t-15 -36t-36.5 -15t-36.5 15t-15 36t15 36t36.5 15
zM127 434h409v-102h-409v102zM68 8h887v213h-887v-213zM845.5 166q21.5 0 36.5 -15t15 -36.5t-15 -36.5t-36.5 -15t-36.5 15t-15 36.5t15 36.5t36.5 15zM127 166h409v-103h-409v103z" />
    <glyph glyph-name="uniE615" unicode="&#xe615;" 
d="M510 486q-42 0 -72 -29.5t-30 -72t30 -72.5t72 -30t72 30t30 72.5t-30 72t-72 29.5zM510 690q-70 0 -140 -23.5t-123 -60t-95.5 -78t-64.5 -80t-22 -64.5q0 -30 22.5 -69.5t64.5 -80.5t95 -76t123 -57t140.5 -22t140 23t123 58.5t95.5 77t64 80.5t22 66q0 41 -35.5 93.5
t-93.5 100t-143 80t-173 32.5zM510 219q-68 0 -116.5 48.5t-48.5 117t48.5 117t117 48.5t117 -48.5t48.5 -117t-48.5 -117t-117.5 -48.5z" />
    <glyph glyph-name="uniE616" unicode="&#xe616;" 
d="M511 628q75 0 148.5 -28t122.5 -67.5t79.5 -79.5t30.5 -67q0 -13 -17 -40.5t-52 -62t-79 -65.5t-106.5 -52t-126.5 -21q-62 0 -123 19.5t-106 49t-80.5 63t-53.5 63t-18 46.5q1 15 19.5 43t54 62.5t80 65t105 51t122.5 20.5zM511 692q-70 0 -140 -23.5t-123 -60
t-95.5 -78t-64.5 -80t-22 -64.5q0 -29 22 -69t64 -81t95.5 -75.5t123.5 -57t140 -22.5t140 23t123 58.5t95 77t64.5 80.5t22.5 66q0 41 -36 93.5t-94 99.5t-143 80t-172 33zM511 221q-68 0 -116.5 48.5t-48.5 117t48.5 117t116.5 48.5t116.5 -48.5t48.5 -117t-48.5 -117
t-116.5 -48.5zM511 488q-42 0 -72 -29.5t-30 -72t30 -72t72 -29.5t72 29.5t30 72t-30 72t-72 29.5z" />
    <glyph glyph-name="uniE617" unicode="&#xe617;" 
d="M409 74q-28 0 -48 20l-273 274q-19 20 -19 48t19.5 48t48 20t48.5 -20l224 -225l428 430q20 20 48 20t48 -20t20 -48t-20 -48l-476 -479q-20 -20 -48 -20zM409 74z" />
    <glyph glyph-name="uniE619" unicode="&#xe619;" 
d="M505 880q-102 0 -195 -40t-160.5 -107.5t-107 -160.5t-39.5 -195t39.5 -195t107 -160.5t160.5 -107.5t195 -40t195 40t160.5 107.5t107.5 160.5t40 195t-40 195t-107.5 160.5t-160.5 107.5t-195 40zM505 -78q-92 0 -176.5 36t-145 97t-97 145.5t-36.5 176.5t36.5 176.5
t97 145.5t145 97t176.5 36t176.5 -36t145.5 -97t97 -145.5t36 -176.5t-36 -176.5t-97 -145.5t-145 -97t-177 -36zM505 -78zM708 546l-34 34l-169 -169l-169 169l-34 -34l169 -169l-169 -169l34 -34l169 169l169 -169l34 34l-169 169zM708 546z" />
    <glyph glyph-name="uniE61A" unicode="&#xe61a;" horiz-adv-x="1025" 
d="M505 880q-103 0 -196.5 -40t-161 -108t-107.5 -161.5t-40 -196t40 -196t107.5 -161t161 -107.5t196.5 -40t196.5 40t161 107.5t107.5 161t40 196t-40 196t-107.5 161.5t-161 108t-196.5 40zM505 -83q-93 0 -178 36.5t-146 97.5t-97.5 146t-36.5 178t36.5 177.5t97.5 146
t146 97.5t178 36t177.5 -36t146 -97.5t97.5 -146t36 -177.5t-36 -178t-97.5 -146t-146 -97.5t-177.5 -36.5zM505 -83zM821 541l-376 -377q-9 -9 -22.5 -9t-22.5 9l-212 212q-9 9 -9 22t9 22.5t22.5 9.5t22.5 -9l190 -190l354 354q9 10 22 10t22.5 -9.5t9.5 -22.5t-10 -22z
M821 541z" />
  </font>
</defs>
</svg>
